# xmcd
#
# Track frame offsets:
#	150
#	14924
#	29203
#	49515
#	62660
#	75739
#	91726
#	104324
#	119401
#	130394
#	142303
#	152085
#
# Disc length: 2229 seconds
#
# Revision: 0
# Processed by: cddbd v1.5.2PL0 Copyright (c) Steve Scherf et al.
# Submitted via: audiograbber 1.83.01
#
DISCID=ab08b30c
DTITLE=Marianne Mendt - Neue Lieder
DYEAR=1978
DGENRE=Pop
TTITLE0=Ich Singe
TTITLE1=Komm Ganz Einfach Zu Mir
TTITLE2=Was Man Zu Zweit Erlebt
TTITLE3=Praterlied
TTITLE4=Was Geblieben Ist
TTITLE5=Wann War Denn Der Anfrang Vom Ende
TTITLE6=Wien
TTITLE7=Das Erste Glas
TTITLE8=Du Nie
TTITLE9=Es Ist Liebe
TTITLE10=Halt Mich Fest
TTITLE11=In Deine Arm
EXTD=
EXTT0=
EXTT1=
EXTT2=
EXTT3=
EXTT4=
EXTT5=
EXTT6=
EXTT7=
EXTT8=
EXTT9=
EXTT10=
EXTT11=
PLAYORDER=
